<svg width="45" height="45" viewBox="0 0 45 45" fill="none" xmlns="http://www.w3.org/2000/svg">
<g clipPath="url(#clip0_95_48)">
<path d="M22.5 0C10.093 0 0 10.093 0 22.5C0 34.907 10.093 45 22.5 45C34.907 45 45 34.907 45 22.5C45 10.093 34.907 0 22.5 0ZM32.3438 24.3749H24.3749V32.3438C24.3749 33.3789 23.5351 34.2186 22.5 34.2186C21.4649 34.2186 20.6251 33.3789 20.6251 32.3438V24.3749H12.6562C11.6211 24.3749 10.7814 23.5351 10.7814 22.5C10.7814 21.4649 11.6211 20.6251 12.6562 20.6251H20.6251V12.6562C20.6251 11.6211 21.4649 10.7814 22.5 10.7814C23.5351 10.7814 24.3749 11.6211 24.3749 12.6562V20.6251H32.3438C33.3789 20.6251 34.2186 21.4649 34.2186 22.5C34.2186 23.5351 33.3789 24.3749 32.3438 24.3749Z" fill="#1F3C60"/>
</g>
<defs>
<clipPath id="clip0_95_48">
<rect width="45" height="45" fill="white"/>
</clipPath>
</defs>
</svg>
