<svg width="45" height="45" viewBox="0 0 45 45" fill="none" xmlns="http://www.w3.org/2000/svg">
	<path
		d="M36.9001 23.2411C36.9001 22.3411 36.2119 21.6528 35.3119 21.6528C34.4119 21.6528 33.7236 22.3411 33.7236 23.2411C33.7236 29.4352 28.6942 34.4646 22.5001 34.4646C16.306 34.4646 11.2766 29.4352 11.2766 23.2411C11.2766 22.3411 10.5883 21.6528 9.68833 21.6528C8.78833 21.6528 8.1001 22.3411 8.1001 23.2411C8.1001 30.5999 13.606 36.794 20.9119 37.5881V41.8234H15.1413C14.2413 41.8234 13.553 42.5116 13.553 43.4116C13.553 44.3116 14.2413 44.9999 15.1413 44.9999H29.8589C30.7589 44.9999 31.4472 44.3116 31.4472 43.4116C31.4472 42.5116 30.7589 41.8234 29.8589 41.8234H24.0883V37.5881C31.3942 36.794 36.9001 30.5999 36.9001 23.2411Z"
		fill="#1F3C60" />
	<path
		d="M22.5001 0C17.6295 0 13.6589 3.97059 13.6589 8.84118V23.1882C13.6589 28.1118 17.6295 32.0294 22.5001 32.0824C27.3707 32.0824 31.3413 28.1118 31.3413 23.2412V8.84118C31.3413 3.97059 27.3707 0 22.5001 0Z"
		fill="#1F3C60" />
</svg>