<svg width="40" height="40" viewBox="0 0 40 40" fill="none" xmlns="http://www.w3.org/2000/svg">
	<path
		d="M38.1249 20C38.1249 20.4973 37.9274 20.9742 37.5758 21.3259C37.2241 21.6775 36.7472 21.875 36.2499 21.875H10.0443L8.16932 20L10.0443 18.125H36.2499C36.7472 18.125 37.2241 18.3226 37.5758 18.6742C37.9274 19.0259 38.1249 19.5028 38.1249 20ZM16.3258 32.5759C16.4999 32.4018 16.638 32.1951 16.7323 31.9676C16.8265 31.7401 16.875 31.4963 16.875 31.25C16.875 31.0038 16.8265 30.76 16.7323 30.5325C16.638 30.305 16.4999 30.0983 16.3258 29.9242L6.40159 20L16.3258 10.0759C16.6774 9.72427 16.875 9.24734 16.875 8.75005C16.875 8.25275 16.6774 7.77583 16.3258 7.42419C15.9742 7.07255 15.4972 6.875 14.9999 6.875C14.5027 6.875 14.0257 7.07255 13.6741 7.42419L2.42409 18.6742C2.24997 18.8483 2.11185 19.055 2.01761 19.2825C1.92338 19.51 1.87488 19.7538 1.87488 20C1.87488 20.2463 1.92338 20.4901 2.01761 20.7176C2.11185 20.9451 2.24997 21.1518 2.42409 21.3259L13.6741 32.5759C13.8482 32.75 14.0549 32.8881 14.2824 32.9824C14.5099 33.0766 14.7537 33.1251 14.9999 33.1251C15.2462 33.1251 15.49 33.0766 15.7175 32.9824C15.945 32.8881 16.1517 32.75 16.3258 32.5759Z"
		fill="black" />
</svg>