<svg width="30" height="30" viewBox="0 0 30 30" fill="#000000" xmlns="http://www.w3.org/2000/svg">
	<path
		d="M18,9.5c0,3.59-3.36,6.5-7.5,6.5A8.5,8.5,0,0,1,7,15.27l-.65.28L3,17l1.15-4A5.82,5.82,0,0,1,3,9.5C3,5.91,6.36,3,10.5,3c3.63,0,6.66,2.24,7.35,5.21A5.49,5.49,0,0,1,18,9.5Z"
		fill="#1F3C60" stroke-width="1"></path>
	<path
		d="M17.85,8.21A6.27,6.27,0,0,1,21,13.5,5.82,5.82,0,0,1,19.85,17L21,21l-4-1.73A8.5,8.5,0,0,1,13.5,20a7.47,7.47,0,0,1-7.11-4.45"
		fill="none" stroke="rgb(0, 0, 0)" stroke-linecap="round" stroke-linejoin="round"
		stroke-width="1"></path>
	<path
		d="M18,9.5c0,3.59-3.36,6.5-7.5,6.5A8.5,8.5,0,0,1,7,15.27l-.65.28L3,17l1.15-4A5.82,5.82,0,0,1,3,9.5C3,5.91,6.36,3,10.5,3c3.63,0,6.66,2.24,7.35,5.21A5.49,5.49,0,0,1,18,9.5Z"
		fill="none" stroke="rgb(0, 0, 0)" stroke-linecap="round" stroke-linejoin="round"
		stroke-width="1"></path>
</svg>